HIERARCHY
ROOT Hips
{
	OFFSET 0.000000 89.005402 0.000000
	CHANNELS 6 Xposition Yposition Zposition Xrotation Yrotation Zrotation
	JOINT Spine
	{
		OFFSET 0.116900 10.681000 0.373400
		CHANNELS 3 Xrotation Yrotation Zrotation
		JOINT Spine1
		{
			OFFSET 0.000000 13.840401 0.053500
			CHANNELS 3 Xrotation Yrotation Zrotation
			JOINT Spine2
			{
				OFFSET 0.000000 14.712700 -0.366200
				CHANNELS 3 Xrotation Yrotation Zrotation
				JOINT Neck
				{
					OFFSET 0.000000 35.415497 -3.314200
					CHANNELS 3 Xrotation Yrotation Zrotation
					JOINT Head
					{
						OFFSET 0.000000 16.899200 1.218300
						CHANNELS 3 Xrotation Yrotation Zrotation
						JOINT HeadTop_End
						{
							OFFSET 0.000000 22.206207 2.192500
							CHANNELS 3 Xrotation Yrotation Zrotation
							End Site
							{
								OFFSET 0.000000 22.314178 0.000000
							}
						}
					}
				}
				JOINT LeftShoulder
				{
					OFFSET 12.896400 26.716293 -4.548400
					CHANNELS 3 Xrotation Yrotation Zrotation
					JOINT LeftArm
					{
						OFFSET 19.027000 -4.857010 -1.718400
						CHANNELS 3 Xrotation Yrotation Zrotation
						JOINT LeftForeArm
						{
							OFFSET 24.179897 0.000000 0.000000
							CHANNELS 3 Xrotation Yrotation Zrotation
							JOINT LeftHand
							{
								OFFSET 27.156403 0.000000 0.000000
								CHANNELS 3 Xrotation Yrotation Zrotation
								JOINT LeftHandIndex1
								{
									OFFSET 16.441200 0.000000 0.000000
									CHANNELS 3 Xrotation Yrotation Zrotation
									JOINT LeftHandIndex2
									{
										OFFSET 4.821899 0.000000 0.000000
										CHANNELS 3 Xrotation Yrotation Zrotation
										JOINT LeftHandIndex3
										{
											OFFSET 6.386497 0.000000 0.000000
											CHANNELS 3 Xrotation Yrotation Zrotation
											JOINT LeftHandIndex4
											{
												OFFSET 5.188988 0.000000 0.000000
												CHANNELS 3 Xrotation Yrotation Zrotation
												End Site
												{
													OFFSET -0.178703 5.185913 0.000177
												}
											}
										}
									}
								}
								JOINT LeftHandThumb1
								{
									OFFSET 6.534897 -5.032593 5.900300
									CHANNELS 3 Xrotation Yrotation Zrotation
									JOINT LeftHandThumb2
									{
										OFFSET 3.818176 -2.204422 2.204423
										CHANNELS 3 Xrotation Yrotation Zrotation
										JOINT LeftHandThumb3
										{
											OFFSET 3.252098 -1.877594 1.877601
											CHANNELS 3 Xrotation Yrotation Zrotation
											JOINT LeftHandThumb4
											{
												OFFSET 5.251778 -3.032120 3.032117
												CHANNELS 3 Xrotation Yrotation Zrotation
												End Site
												{
													OFFSET 0.000023 6.780014 0.000000
												}
											}
										}
									}
								}
							}
						}
					}
				}
				JOINT RightShoulder
				{
					OFFSET -12.896300 26.716293 -4.548400
					CHANNELS 3 Xrotation Yrotation Zrotation
					JOINT RightArm
					{
						OFFSET -19.027000 -4.857010 -1.718400
						CHANNELS 3 Xrotation Yrotation Zrotation
						JOINT RightForeArm
						{
							OFFSET -24.179897 0.000000 0.000000
							CHANNELS 3 Xrotation Yrotation Zrotation
							JOINT RightHand
							{
								OFFSET -27.156403 0.000000 0.000000
								CHANNELS 3 Xrotation Yrotation Zrotation
								JOINT RightHandThumb1
								{
									OFFSET -6.591202 -4.852203 5.988100
									CHANNELS 3 Xrotation Yrotation Zrotation
									JOINT RightHandThumb2
									{
										OFFSET -3.818176 -2.204422 2.204423
										CHANNELS 3 Xrotation Yrotation Zrotation
										JOINT RightHandThumb3
										{
											OFFSET -3.252098 -1.877594 1.877601
											CHANNELS 3 Xrotation Yrotation Zrotation
											JOINT RightHandThumb4
											{
												OFFSET -5.251778 -3.032120 3.032117
												CHANNELS 3 Xrotation Yrotation Zrotation
												End Site
												{
													OFFSET -0.000023 6.780014 0.000000
												}
											}
										}
									}
								}
								JOINT RightHandIndex1
								{
									OFFSET -16.029404 0.000000 0.000000
									CHANNELS 3 Xrotation Yrotation Zrotation
									JOINT RightHandIndex2
									{
										OFFSET -5.213303 0.000000 0.000000
										CHANNELS 3 Xrotation Yrotation Zrotation
										JOINT RightHandIndex3
										{
											OFFSET -6.386528 0.000000 0.000000
											CHANNELS 3 Xrotation Yrotation Zrotation
											JOINT RightHandIndex4
											{
												OFFSET -5.189026 0.000000 0.000000
												CHANNELS 3 Xrotation Yrotation Zrotation
												End Site
												{
													OFFSET 0.236702 5.183624 0.001972
												}
											}
										}
									}
								}
							}
						}
					}
				}
			}
		}
	}
	JOINT LeftUpLeg
	{
		OFFSET 14.073000 -7.904099 -1.463000
		CHANNELS 3 Xrotation Yrotation Zrotation
		JOINT LeftLeg
		{
			OFFSET -0.109806 -34.073280 4.093200
			CHANNELS 3 Xrotation Yrotation Zrotation
			JOINT LeftFoot
			{
				OFFSET 0.109806 -29.899420 -6.319000
				CHANNELS 3 Xrotation Yrotation Zrotation
				JOINT LeftToeBase
				{
					OFFSET 1.551100 -14.988700 20.535801
					CHANNELS 3 Xrotation Yrotation Zrotation
					JOINT LeftToe_End
					{
						OFFSET 0.221200 0.570800 13.248301
						CHANNELS 3 Xrotation Yrotation Zrotation
						End Site
						{
							OFFSET 0.000000 13.262435 0.000000
						}
					}
				}
			}
		}
	}
	JOINT RightUpLeg
	{
		OFFSET -13.839300 -7.904099 -1.463000
		CHANNELS 3 Xrotation Yrotation Zrotation
		JOINT RightLeg
		{
			OFFSET 0.109694 -34.073219 4.093300
			CHANNELS 3 Xrotation Yrotation Zrotation
			JOINT RightFoot
			{
				OFFSET -0.109694 -29.899384 -6.319200
				CHANNELS 3 Xrotation Yrotation Zrotation
				JOINT RightToeBase
				{
					OFFSET -1.551100 -14.988700 20.535801
					CHANNELS 3 Xrotation Yrotation Zrotation
					JOINT RightToe_End
					{
						OFFSET -0.221200 0.570900 13.248299
						CHANNELS 3 Xrotation Yrotation Zrotation
						End Site
						{
							OFFSET 0.000000 13.262440 0.000000
						}
					}
				}
			}
		}
	}
}
MOTION
Frames: 8
Frame Time: 0.033333
106.210739 72.927040 1.307858 6.304024 17.738655 -12.535146 -1.003130 -1.769900 1.199536 -2.087859 -3.478563 -0.166515 -2.087861 -3.478568 -0.166510 2.617863 18.385935 2.128632 9.060226 39.823083 -23.835004 -0.000000 0.000003 0.000001 0.201395 4.167026 -7.844729 -9.638553 -19.681359 -75.835058 -10.712833 -97.395923 6.682098 -96.572291 -27.018493 -7.224044 7.554888 5.560395 -33.410376 -14.917838 -6.767413 -80.641906 0.000010 0.000012 -0.000010 0.000002 0.000001 0.000001 3.592084 4.185688 -5.133825 1.252889 4.302583 1.889373 0.000006 -0.000017 -0.000010 -0.000000 0.000002 0.000002 8.553048 16.854421 0.820564 33.533063 35.028471 -0.743284 2.870937 107.750025 -2.263227 -10.836031 25.556621 -22.957613 15.407464 -4.518715 17.010994 11.550400 4.015402 -20.411400 -0.000006 0.000007 0.000012 -0.000001 0.000000 0.000000 1.857067 -0.976116 4.781773 -1.775897 -0.095303 22.317061 0.000009 -0.000005 0.000007 0.000001 0.000002 -0.000002 -38.282510 41.795850 23.540032 80.563734 -34.036769 -11.741392 -8.477538 -3.525583 10.542287 -21.736978 -18.487422 41.604127 0.000000 0.000000 0.000000 -47.043068 -5.174343 23.688771 43.576515 -24.353948 2.900541 -5.393716 2.310424 -12.565430 -0.040963 -2.351998 1.565102 -0.000000 -0.000000 -0.000000 
109.135979 72.746170 1.257776 5.723560 17.737516 -12.263885 -1.034677 -1.679551 1.118617 -2.149338 -3.346897 -0.320555 -2.149338 -3.346905 -0.320552 3.960287 18.176960 1.417864 8.462106 39.747050 -23.733142 -0.000001 0.000001 0.000000 0.349034 4.469849 -8.111683 -9.277209 -19.023248 -74.875792 -11.775650 -97.627384 5.734161 -96.493668 -27.462645 -6.961875 7.554887 5.560396 -33.410376 -14.917830 -6.767414 -80.641913 0.000008 0.000014 -0.000009 -0.000000 0.000001 0.000002 3.592083 4.185685 -5.133822 1.252891 4.302581 1.889376 0.000008 -0.000019 -0.000010 -0.000000 -0.000001 0.000000 8.660816 16.720264 0.444735 32.725325 37.315519 0.270352 1.495654 105.421593 -1.323873 -11.799637 27.010874 -20.758926 15.407464 -4.518715 17.010993 11.550399 4.015403 -20.411400 -0.000008 0.000007 0.000013 0.000002 -0.000000 0.000000 1.857064 -0.976116 4.781774 -1.775898 -0.095303 22.317061 0.000005 -0.000005 0.000004 -0.000003 0.000002 -0.000002 -43.016969 35.906229 23.088252 88.889270 -17.217648 -7.263413 -5.955623 -1.429319 8.670318 -36.327799 -23.340423 29.291621 -0.000001 0.000000 -0.000000 -47.130733 -5.771628 21.694242 47.300262 -22.337032 1.423595 -7.732276 1.679667 -9.035887 -0.044820 -2.352139 1.571385 0.000000 0.000000 0.000000 
112.031082 72.946617 1.353429 5.306118 17.519032 -11.668114 -1.080040 -1.596973 0.939511 -2.235557 -3.234980 -0.530579 -2.235556 -3.234982 -0.530580 4.771918 18.179510 0.457269 7.936592 39.732822 -23.496025 0.000000 0.000000 -0.000001 0.479562 4.565856 -8.451668 -8.521454 -17.669440 -73.524227 -11.284726 -98.063218 6.430941 -96.427607 -27.515682 -6.829280 7.554888 5.560392 -33.410369 -14.917837 -6.767412 -80.641906 0.000005 0.000013 -0.000009 -0.000001 -0.000002 -0.000004 3.592085 4.185684 -5.133822 1.252893 4.302582 1.889375 0.000009 -0.000024 -0.000009 0.000002 0.000001 0.000003 8.802730 16.595181 -0.070047 31.928218 40.516450 1.560283 -0.244963 102.558507 0.075357 -12.492036 28.376789 -18.792497 15.407471 -4.518715 17.010993 11.550402 4.015403 -20.411406 -0.000010 0.000007 0.000012 -0.000000 0.000000 -0.000000 1.857065 -0.976116 4.781773 -1.775900 -0.095303 22.317061 0.000003 -0.000003 0.000007 -0.000001 0.000001 -0.000002 -47.132007 25.614417 23.180334 91.514146 -0.351778 -4.581387 2.915011 1.130391 1.929683 -61.504132 -20.062190 7.329412 -0.000000 0.000003 -0.000000 -46.737550 -5.432811 19.668592 49.530766 -20.535433 -0.164328 -9.463862 0.967934 -5.665917 -0.047865 -2.352272 1.576557 0.000000 0.000000 0.000000 
114.964813 73.196358 1.450850 4.890717 17.185261 -10.975702 -1.127824 -1.501304 0.758330 -2.325137 -3.091764 -0.719397 -2.325135 -3.091764 -0.719398 5.230047 18.254662 -0.145453 7.658671 39.807480 -23.385195 0.000001 -0.000001 -0.000000 0.527249 4.556396 -8.606663 -8.210009 -16.452356 -72.376380 -9.824775 -97.724031 8.092613 -96.158866 -27.137689 -6.809873 7.554889 5.560399 -33.410372 -14.917832 -6.767413 -80.641906 0.000006 0.000013 -0.000009 0.000000 -0.000001 0.000000 3.592085 4.185687 -5.133822 1.252891 4.302579 1.889376 0.000009 -0.000024 -0.000011 0.000000 -0.000001 0.000003 8.907047 16.624028 -0.475266 31.309560 43.638055 2.701999 -0.871009 99.319140 0.635154 -12.929230 30.080290 -17.699165 15.407455 -4.518715 17.010993 11.550402 4.015403 -20.411404 -0.000010 0.000007 0.000012 0.000000 0.000000 0.000000 1.857055 -0.976116 4.781773 -1.775896 -0.095303 22.317059 0.000007 -0.000003 0.000007 0.000001 -0.000001 -0.000001 -49.003305 16.604917 21.131905 96.684456 14.322443 -2.851738 1.021582 0.507934 4.370629 -50.683480 6.099556 -9.965181 -0.000000 -0.000001 0.000000 -46.205338 -4.526357 17.548791 51.262916 -19.014077 -1.577486 -10.913494 0.308463 -2.316188 -0.049902 -2.352347 1.580012 -0.000000 -0.000000 -0.000000 
118.048653 73.616280 1.477227 4.554479 16.645408 -10.246093 -1.189845 -1.385687 0.481074 -2.435821 -2.852145 -0.873016 -2.435820 -2.852145 -0.873016 5.734751 18.254992 -0.301837 7.499282 39.902334 -23.386650 0.000000 0.000000 -0.000003 0.510250 4.559289 -8.554875 -8.007450 -15.746257 -72.205611 -9.284297 -97.338925 8.391349 -95.615040 -27.177920 -6.976044 7.554888 5.560397 -33.410376 -14.917832 -6.767411 -80.641913 0.000002 0.000011 -0.000008 0.000001 -0.000002 0.000002 3.592082 4.185688 -5.133822 1.252891 4.302583 1.889375 0.000009 -0.000018 -0.000010 -0.000002 -0.000002 0.000001 8.961820 16.742523 -0.704262 31.105569 45.020663 3.399690 -0.219805 97.119956 0.184142 -13.011314 31.972590 -17.300939 15.407469 -4.518715 17.010993 11.550403 4.015403 -20.411402 -0.000009 0.000006 0.000012 0.000001 -0.000000 -0.000000 1.857062 -0.976116 4.781773 -1.775894 -0.095303 22.317061 0.000012 -0.000003 0.000009 -0.000002 -0.000001 0.000001 -49.414527 9.529898 20.444964 98.511771 24.961259 -1.434482 -4.531427 -0.271568 4.366817 -24.516168 10.650970 -27.707832 0.000001 0.000001 -0.000000 -45.444220 -2.952298 15.311211 52.081504 -17.685422 -2.861499 -11.810215 -0.300923 1.120390 -0.050499 -2.352377 1.581436 -0.000000 0.000000 0.000000 
118.048653 73.616280 1.477227 4.554479 16.645408 -10.246093 -1.189845 -1.385687 0.481074 -2.435821 -2.852145 -0.873016 -2.435820 -2.852145 -0.873016 5.734751 18.254992 -0.301837 7.499282 39.902334 -23.386650 0.000000 0.000000 -0.000003 0.510250 4.559289 -8.554875 -8.007450 -15.746257 -72.205611 -9.284297 -97.338925 8.391349 -95.615040 -27.177920 -6.976044 7.554888 5.560397 -33.410376 -14.917832 -6.767411 -80.641913 0.000002 0.000011 -0.000008 0.000001 -0.000002 0.000002 3.592082 4.185688 -5.133822 1.252891 4.302583 1.889375 0.000009 -0.000018 -0.000010 -0.000002 -0.000002 0.000001 8.961820 16.742523 -0.704262 31.105569 45.020663 3.399690 -0.219805 97.119956 0.184142 -13.011314 31.972590 -17.300939 15.407469 -4.518715 17.010993 11.550403 4.015403 -20.411402 -0.000009 0.000006 0.000012 0.000001 -0.000000 -0.000000 1.857062 -0.976116 4.781773 -1.775894 -0.095303 22.317061 0.000012 -0.000003 0.000009 -0.000002 -0.000001 0.000001 -49.414527 9.529898 20.444964 98.511771 24.961259 -1.434482 -4.531427 -0.271568 4.366817 -24.516168 10.650970 -27.707832 0.000001 0.000001 -0.000000 -45.444220 -2.952298 15.311211 52.081504 -17.685422 -2.861499 -11.810215 -0.300923 1.120390 -0.050499 -2.352377 1.581436 -0.000000 0.000000 0.000000 
118.048653 73.616280 1.477227 4.554479 16.645408 -10.246093 -1.189845 -1.385687 0.481074 -2.435821 -2.852145 -0.873016 -2.435820 -2.852145 -0.873016 5.734751 18.254992 -0.301837 7.499282 39.902334 -23.386650 0.000000 0.000000 -0.000003 0.510250 4.559289 -8.554875 -8.007450 -15.746257 -72.205611 -9.284297 -97.338925 8.391349 -95.615040 -27.177920 -6.976044 7.554888 5.560397 -33.410376 -14.917832 -6.767411 -80.641913 0.000002 0.000011 -0.000008 0.000001 -0.000002 0.000002 3.592082 4.185688 -5.133822 1.252891 4.302583 1.889375 0.000009 -0.000018 -0.000010 -0.000002 -0.000002 0.000001 8.961820 16.742523 -0.704262 31.105569 45.020663 3.399690 -0.219805 97.119956 0.184142 -13.011314 31.972590 -17.300939 15.407469 -4.518715 17.010993 11.550403 4.015403 -20.411402 -0.000009 0.000006 0.000012 0.000001 -0.000000 -0.000000 1.857062 -0.976116 4.781773 -1.775894 -0.095303 22.317061 0.000012 -0.000003 0.000009 -0.000002 -0.000001 0.000001 -49.414527 9.529898 20.444964 98.511771 24.961259 -1.434482 -4.531427 -0.271568 4.366817 -24.516168 10.650970 -27.707832 0.000001 0.000001 -0.000000 -45.444220 -2.952298 15.311211 52.081504 -17.685422 -2.861499 -11.810215 -0.300923 1.120390 -0.050499 -2.352377 1.581436 -0.000000 0.000000 0.000000 
118.048653 73.616280 1.477227 4.554479 16.645408 -10.246093 -1.189845 -1.385687 0.481074 -2.435821 -2.852145 -0.873016 -2.435820 -2.852145 -0.873016 5.734751 18.254992 -0.301837 7.499282 39.902334 -23.386650 0.000000 0.000000 -0.000003 0.510250 4.559289 -8.554875 -8.007450 -15.746257 -72.205611 -9.284297 -97.338925 8.391349 -95.615040 -27.177920 -6.976044 7.554888 5.560397 -33.410376 -14.917832 -6.767411 -80.641913 0.000002 0.000011 -0.000008 0.000001 -0.000002 0.000002 3.592082 4.185688 -5.133822 1.252891 4.302583 1.889375 0.000009 -0.000018 -0.000010 -0.000002 -0.000002 0.000001 8.961820 16.742523 -0.704262 31.105569 45.020663 3.399690 -0.219805 97.119956 0.184142 -13.011314 31.972590 -17.300939 15.407469 -4.518715 17.010993 11.550403 4.015403 -20.411402 -0.000009 0.000006 0.000012 0.000001 -0.000000 -0.000000 1.857062 -0.976116 4.781773 -1.775894 -0.095303 22.317061 0.000012 -0.000003 0.000009 -0.000002 -0.000001 0.000001 -49.414527 9.529898 20.444964 98.511771 24.961259 -1.434482 -4.531427 -0.271568 4.366817 -24.516168 10.650970 -27.707832 0.000001 0.000001 -0.000000 -45.444220 -2.952298 15.311211 52.081504 -17.685422 -2.861499 -11.810215 -0.300923 1.120390 -0.050499 -2.352377 1.581436 -0.000000 0.000000 0.000000 
